<svg width="46" height="15" viewBox="0 0 46 15" fill="none" xmlns="http://www.w3.org/2000/svg">
<path d="M14.04 14.16C13.52 14.16 13.1667 14.0267 12.98 13.76C12.7933 13.48 12.7 13.1333 12.7 12.72C12.7 12.3467 12.7533 11.9267 12.86 11.46C12.98 10.8867 13.1933 10.2067 13.5 9.42C13.82 8.63333 14.1733 7.81333 14.56 6.96C14.96 6.09333 15.3533 5.26667 15.74 4.48C16.14 3.69333 16.4867 3.02 16.78 2.46C16.6067 2.62 16.4267 2.78667 16.24 2.96C16.0667 3.13333 15.8867 3.32667 15.7 3.54C14.9267 4.40667 14.22 5.23333 13.58 6.02C12.9533 6.79333 12.3467 7.56 11.76 8.32C11.1867 9.06667 10.5933 9.83333 9.98 10.62C9.64667 11.06 9.38 11.3933 9.18 11.62C8.99333 11.8333 8.82 11.98 8.66 12.06C8.51333 12.1267 8.32667 12.16 8.1 12.16C7.76667 12.16 7.38667 12.06 6.96 11.86C7.14667 11.6333 7.27333 11.1467 7.34 10.4C7.42 9.65333 7.46 8.8 7.46 7.84C7.46 6.86667 7.42667 5.86 7.36 4.82C7.29333 3.78 7.19333 2.86 7.06 2.06C6.98 2.19333 6.83333 2.48667 6.62 2.94C6.42 3.39333 6.17333 3.95333 5.88 4.62C5.6 5.27333 5.3 5.98667 4.98 6.76C4.66 7.52 4.34667 8.28667 4.04 9.06C3.74667 9.82 3.48 10.54 3.24 11.22C3.01333 11.9 2.84 12.4867 2.72 12.98C2.6 13.4733 2.56 13.8133 2.6 14H0.76C1.05333 13.2533 1.38667 12.4267 1.76 11.52C2.14667 10.6 2.54667 9.66 2.96 8.7C3.37333 7.74 3.78 6.80667 4.18 5.9C4.59333 4.99333 4.96667 4.16667 5.3 3.42C5.64667 2.66 5.93333 2.03333 6.16 1.54C6.38667 1.04667 6.53333 0.739999 6.6 0.619999C6.01333 0.606666 5.41333 0.666666 4.8 0.799999C4.18667 0.92 3.61333 1.09333 3.08 1.32C2.54667 1.54667 2.09333 1.80667 1.72 2.1C1.36 2.39333 1.12667 2.7 1.02 3.02C1.00667 3.06 0.98 3.08 0.94 3.08C0.833333 3.08 0.78 2.99333 0.78 2.82C0.78 2.79333 0.78 2.76667 0.78 2.74C0.793333 2.7 0.806667 2.66 0.82 2.62C0.94 2.27333 1.08667 1.96667 1.26 1.7C1.44667 1.43333 1.62667 1.20667 1.8 1.02C2.24 0.566666 2.73333 0.293333 3.28 0.199999C3.82667 0.0933328 4.40667 0.0399997 5.02 0.0399997H6.96C7.25333 0.0399997 7.54 0.0399997 7.82 0.0399997C8.1 0.0399997 8.34667 0.113333 8.56 0.259999C8.77333 0.393332 8.91333 0.659999 8.98 1.06C9.03333 1.34 9.08 1.76667 9.12 2.34C9.17333 2.9 9.21333 3.52667 9.24 4.22C9.28 4.91333 9.31333 5.6 9.34 6.28C9.36667 6.96 9.38667 7.54667 9.4 8.04C9.4 8.06667 9.4 8.14667 9.4 8.28C9.41333 8.4 9.42 8.55333 9.42 8.74C9.42 8.91333 9.41333 9.11333 9.4 9.34C9.4 9.55333 9.38667 9.76 9.36 9.96C9.64 9.61333 9.98667 9.18667 10.4 8.68C10.8267 8.16 11.2867 7.6 11.78 7C12.2733 6.38667 12.7733 5.77333 13.28 5.16C13.7867 4.54667 14.2733 3.96 14.74 3.4C15.2067 2.84 15.6133 2.35333 15.96 1.94C16.32 1.51333 16.5867 1.19333 16.76 0.98C17.0667 0.633333 17.4533 0.393332 17.92 0.259999C18.3867 0.113333 18.8533 0.0399997 19.32 0.0399997H20.56C20.28 0.253333 19.9733 0.613332 19.64 1.12C19.3067 1.62667 18.98 2.17333 18.66 2.76C18.3533 3.34667 18.08 3.88 17.84 4.36C17.4933 5.08 17.14 5.86 16.78 6.7C16.42 7.54 16.1 8.37333 15.82 9.2C15.54 10.0267 15.3333 10.7933 15.2 11.5C15.16 11.7133 15.14 11.94 15.14 12.18C15.14 12.4733 15.1867 12.7333 15.28 12.96C15.3867 13.1733 15.5733 13.28 15.84 13.28C16.0533 13.28 16.3133 13.1933 16.62 13.02H16.64C16.6667 13.02 16.6867 13.0467 16.7 13.1C16.7133 13.14 16.7067 13.1733 16.68 13.2C16.4267 13.4667 16.04 13.6933 15.52 13.88C15 14.0667 14.5067 14.16 14.04 14.16ZM23.3816 14.12C22.9682 14.12 22.6816 13.96 22.5216 13.64C22.3749 13.32 22.3016 12.9267 22.3016 12.46C22.3016 12.0333 22.3416 11.6133 22.4216 11.2C22.4616 11.0133 22.5016 10.8267 22.5416 10.64C22.5949 10.44 22.6549 10.2333 22.7216 10.02C22.4949 10.4333 22.2549 10.8333 22.0016 11.22C21.7616 11.6067 21.5149 11.9467 21.2616 12.24C20.8349 12.76 20.3816 13.1933 19.9016 13.54C19.4349 13.8867 18.9682 14.06 18.5016 14.06C18.1282 14.06 17.8082 13.9267 17.5416 13.66C17.2882 13.38 17.1616 12.9 17.1616 12.22C17.1616 11.5267 17.2816 10.8133 17.5216 10.08C17.7616 9.34667 18.0949 8.66667 18.5216 8.04C18.9616 7.4 19.4749 6.88667 20.0616 6.5C20.6616 6.11333 21.3149 5.92 22.0216 5.92C22.2482 5.92 22.4949 5.95333 22.7616 6.02C23.0282 6.08667 23.2749 6.21333 23.5016 6.4C23.7282 6.57333 23.8816 6.82 23.9616 7.14C23.9749 7.11333 23.9882 7.09333 24.0016 7.08C24.0282 7.06667 24.0482 7.05333 24.0616 7.04C24.2482 6.74667 24.4616 6.5 24.7016 6.3C24.9416 6.1 25.2082 6 25.5016 6C25.6482 6 25.8549 6.00667 26.1216 6.02C26.3882 6.03333 26.5816 6.03333 26.7016 6.02C26.6349 6.07333 26.5416 6.18 26.4216 6.34C26.3149 6.5 26.2149 6.66667 26.1216 6.84C26.0282 7 25.9549 7.12667 25.9016 7.22C25.5416 7.91333 25.2149 8.6 24.9216 9.28C24.6282 9.96 24.4016 10.6133 24.2416 11.24C24.2016 11.3733 24.1749 11.5 24.1616 11.62C24.1482 11.7267 24.1416 11.8333 24.1416 11.94C24.1416 12.2867 24.2549 12.46 24.4816 12.46C24.6949 12.46 24.9616 12.3267 25.2816 12.06C25.7482 11.6867 26.1549 11.22 26.5016 10.66C26.8616 10.1 27.1749 9.56 27.4416 9.04C27.4949 8.94667 27.5416 8.9 27.5816 8.9C27.6616 8.9 27.7016 9.01333 27.7016 9.24C27.7016 9.34667 27.6816 9.46667 27.6416 9.6C27.6149 9.73333 27.5682 9.86 27.5016 9.98C27.3149 10.3 27.0682 10.6933 26.7616 11.16C26.4682 11.6267 26.1349 12.0867 25.7616 12.54C25.3882 12.98 24.9949 13.3533 24.5816 13.66C24.1816 13.9667 23.7816 14.12 23.3816 14.12ZM19.4016 12.38C19.4416 12.3933 19.5016 12.4 19.5816 12.4C19.8349 12.4 20.1082 12.2933 20.4016 12.08C20.6949 11.8667 20.9882 11.5933 21.2816 11.26C21.5749 10.9133 21.8349 10.5667 22.0616 10.22C22.6482 9.28667 23.0816 8.58667 23.3616 8.12C23.6416 7.65333 23.8016 7.38667 23.8416 7.32C23.7749 7.09333 23.6549 6.92667 23.4816 6.82C23.3216 6.71333 23.1282 6.66 22.9016 6.66C22.6082 6.66 22.2949 6.74 21.9616 6.9C21.6416 7.06 21.3682 7.25333 21.1416 7.48C20.7949 7.82667 20.4616 8.27333 20.1416 8.82C19.8349 9.36667 19.5816 9.90667 19.3816 10.44C19.1949 10.9733 19.1016 11.42 19.1016 11.78C19.1016 12.1133 19.2016 12.3133 19.4016 12.38ZM30.0347 14.14C29.608 14.14 29.3014 13.96 29.1147 13.6C28.968 13.28 28.8947 12.9 28.8947 12.46C28.8947 11.9667 28.968 11.42 29.1147 10.82C29.2614 10.22 29.4614 9.60667 29.7147 8.98C29.808 8.75333 29.928 8.46667 30.0747 8.12C30.2347 7.77333 30.4214 7.43333 30.6347 7.1C30.448 7.26 30.228 7.39333 29.9747 7.5C29.7214 7.59333 29.4747 7.64 29.2347 7.64C29.048 7.64 28.8947 7.61333 28.7747 7.56C28.668 7.77333 28.4947 8.12 28.2547 8.6C28.0147 9.08 27.6947 9.64667 27.2947 10.3C27.2547 10.3667 27.2147 10.3667 27.1747 10.3C27.148 10.22 27.1347 10.1133 27.1347 9.98C27.1347 9.87333 27.148 9.76 27.1747 9.64C27.2014 9.52 27.2414 9.40667 27.2947 9.3C27.428 9.04667 27.5614 8.78667 27.6947 8.52C27.828 8.24 27.948 7.99333 28.0547 7.78C28.1614 7.56667 28.2214 7.43333 28.2347 7.38C27.9947 7.26 27.8147 7.09333 27.6947 6.88C27.5747 6.65333 27.5147 6.43333 27.5147 6.22C27.5147 6.00667 27.5614 5.81333 27.6547 5.64C27.7614 5.46667 27.9147 5.33333 28.1147 5.24C28.2347 5.2 28.348 5.18 28.4547 5.18C28.748 5.18 28.988 5.27333 29.1747 5.46C29.1614 5.51333 29.148 5.57333 29.1347 5.64C29.1347 5.69333 29.1347 5.75333 29.1347 5.82C29.1347 6.23333 29.3014 6.54 29.6347 6.74C29.968 6.94 30.328 7.01333 30.7147 6.96C30.9014 6.69333 31.1147 6.46 31.3547 6.26C31.5947 6.06 31.8547 5.96 32.1347 5.96C32.2814 5.96 32.488 5.96667 32.7547 5.98C33.0347 5.99333 33.2347 5.99333 33.3547 5.98C33.2747 6.03333 33.1814 6.14 33.0747 6.3C32.968 6.46 32.868 6.62667 32.7747 6.8C32.6814 6.97333 32.608 7.10667 32.5547 7.2C32.1947 7.89333 31.8614 8.58667 31.5547 9.28C31.248 9.96 31.0147 10.6133 30.8547 11.24C30.828 11.36 30.8014 11.4733 30.7747 11.58C30.7614 11.6733 30.7547 11.7733 30.7547 11.88C30.7547 12.28 30.888 12.48 31.1547 12.48C31.3414 12.48 31.608 12.3467 31.9547 12.08C32.2614 11.8267 32.5347 11.5467 32.7747 11.24C33.0414 10.8933 33.2947 10.52 33.5347 10.12C33.7747 9.72 33.9814 9.35333 34.1547 9.02C34.2214 8.91333 34.268 8.86 34.2947 8.86C34.3747 8.86 34.4147 8.98 34.4147 9.22C34.4147 9.31333 34.4014 9.42667 34.3747 9.56C34.348 9.69333 34.3014 9.82 34.2347 9.94C34.0347 10.2733 33.808 10.64 33.5547 11.04C33.3014 11.4267 33.0414 11.8067 32.7747 12.18C32.6014 12.42 32.3547 12.6933 32.0347 13C31.728 13.3067 31.3947 13.5733 31.0347 13.8C30.688 14.0267 30.3547 14.14 30.0347 14.14ZM37.8139 4.4C37.4672 4.28 37.2939 4.05333 37.2939 3.72C37.2939 3.41333 37.4139 3.1 37.6539 2.78C37.9072 2.44667 38.1806 2.23333 38.4739 2.14C38.5406 2.11333 38.5939 2.1 38.6339 2.1C38.6872 2.1 38.7406 2.1 38.7939 2.1C39.0206 2.1 39.2072 2.16667 39.3539 2.3C39.5006 2.43333 39.5739 2.58667 39.5739 2.76C39.5739 3 39.4472 3.2 39.1939 3.36C38.9939 3.33333 38.8006 3.38 38.6139 3.5C38.4272 3.62 38.2606 3.76667 38.1139 3.94C37.9806 4.11333 37.8806 4.26667 37.8139 4.4ZM34.3739 14.12C34.2006 14.12 34.0339 14.08 33.8739 14C33.7139 13.9333 33.5806 13.7933 33.4739 13.58C33.3272 13.26 33.2539 12.88 33.2539 12.44C33.2539 11.96 33.3272 11.4267 33.4739 10.84C33.6206 10.24 33.8139 9.62667 34.0539 9C34.1472 8.77333 34.2672 8.49333 34.4139 8.16C34.5606 7.82667 34.7339 7.49333 34.9339 7.16C35.1339 6.82667 35.3606 6.55333 35.6139 6.34C35.8806 6.11333 36.1672 6 36.4739 6C36.6206 6 36.8272 6.00667 37.0939 6.02C37.3606 6.03333 37.5539 6.03333 37.6739 6.02C37.5939 6.07333 37.5006 6.18 37.3939 6.34C37.2872 6.5 37.1872 6.66667 37.0939 6.84C37.0006 7 36.9272 7.12667 36.8739 7.22C36.5272 7.91333 36.2006 8.6 35.8939 9.28C35.5872 9.96 35.3539 10.6133 35.1939 11.24C35.1672 11.3467 35.1472 11.4533 35.1339 11.56C35.1206 11.6667 35.1139 11.7667 35.1139 11.86C35.1139 12.2467 35.2406 12.44 35.4939 12.44C35.6006 12.44 35.7139 12.4133 35.8339 12.36C35.9672 12.2933 36.1206 12.1933 36.2939 12.06C36.6006 11.82 36.8672 11.5467 37.0939 11.24C37.3606 10.8933 37.6139 10.5267 37.8539 10.14C38.0939 9.74 38.3006 9.37333 38.4739 9.04C38.5406 8.93333 38.5872 8.88 38.6139 8.88C38.6939 8.88 38.7339 8.99333 38.7339 9.22C38.7339 9.32667 38.7139 9.45333 38.6739 9.6C38.6472 9.73333 38.6006 9.86 38.5339 9.98C38.3472 10.3 38.1272 10.6533 37.8739 11.04C37.6206 11.4267 37.3606 11.8 37.0939 12.16C36.9072 12.4133 36.6606 12.6933 36.3539 13C36.0472 13.3067 35.7206 13.5733 35.3739 13.8C35.0272 14.0133 34.6939 14.12 34.3739 14.12ZM42.4298 13.72C41.8165 14.04 41.1698 14.2 40.4898 14.2C39.9165 14.2 39.3832 14.06 38.8898 13.78C38.3965 13.5 38.0632 13.0533 37.8898 12.44C37.8098 12.16 37.7698 11.8667 37.7698 11.56C37.7698 11.0533 37.8565 10.5333 38.0298 10C38.2165 9.45333 38.4565 8.95333 38.7498 8.5C39.2032 7.79333 39.7765 7.20667 40.4698 6.74C41.1632 6.27333 41.9298 6.04 42.7698 6.04C43.3965 6.04 43.8832 6.2 44.2298 6.52C44.5765 6.84 44.7498 7.21333 44.7498 7.64C44.7498 8.14667 44.5765 8.59333 44.2298 8.98C43.8965 9.35333 43.4565 9.64 42.9098 9.84C42.6432 9.93333 42.3565 10.0067 42.0498 10.06C41.7565 10.1 41.4765 10.12 41.2098 10.12C40.6632 10.12 40.2432 10.0467 39.9498 9.9C39.6965 10.5533 39.5698 11.1533 39.5698 11.7C39.5698 12.1933 39.6832 12.6 39.9098 12.92C40.1365 13.2267 40.4965 13.38 40.9898 13.38C41.4032 13.38 41.8098 13.2667 42.2098 13.04C42.6232 12.8133 43.0032 12.5333 43.3498 12.2C43.7098 11.8667 44.0098 11.5467 44.2498 11.24C44.4365 11.0133 44.5965 10.8 44.7298 10.6C44.8632 10.4 45.0032 10.1733 45.1498 9.92C45.2965 9.65333 45.4698 9.32667 45.6698 8.94C45.7232 8.84667 45.7698 8.8 45.8098 8.8C45.8898 8.8 45.9298 8.90667 45.9298 9.12C45.9298 9.24 45.9098 9.37333 45.8698 9.52C45.8432 9.65333 45.7898 9.79333 45.7098 9.94C45.5232 10.2733 45.2965 10.64 45.0298 11.04C44.7765 11.4267 44.5165 11.8 44.2498 12.16C44.0098 12.48 43.7365 12.7733 43.4298 13.04C43.1232 13.3067 42.7898 13.5333 42.4298 13.72ZM40.6098 9.46C40.6765 9.5 40.7498 9.52667 40.8298 9.54C40.9098 9.55333 40.9898 9.56 41.0698 9.56C41.3365 9.56 41.6032 9.5 41.8698 9.38C42.1365 9.24667 42.3632 9.11333 42.5498 8.98C42.8565 8.76667 43.1165 8.51333 43.3298 8.22C43.5432 7.92667 43.6632 7.59333 43.6898 7.22C43.7032 7.06 43.6632 6.92667 43.5698 6.82C43.4898 6.7 43.3432 6.64 43.1298 6.64C43.0232 6.64 42.8898 6.66 42.7298 6.7C42.5165 6.75333 42.3032 6.85333 42.0898 7C41.8765 7.14667 41.6698 7.32 41.4698 7.52C41.4032 7.58667 41.2832 7.72 41.1098 7.92C40.9498 8.10667 40.7965 8.32 40.6498 8.56C40.5032 8.78667 40.4298 8.98667 40.4298 9.16C40.4298 9.30667 40.4898 9.40667 40.6098 9.46Z" fill="white"/>
</svg>
