<svg width="39" height="19" viewBox="0 0 39 19" fill="none" xmlns="http://www.w3.org/2000/svg">
<path d="M3.98 14C4.08667 13.52 4.23333 13 4.42 12.44C4.60667 11.8667 4.80667 11.2733 5.02 10.66C5.32667 9.86 5.48 9.13333 5.48 8.48C5.48 8.41333 5.48 8.34667 5.48 8.28C5.48 8.2 5.47333 8.12667 5.46 8.06C5.38 7.48667 5.23333 6.84667 5.02 6.14C4.80667 5.43333 4.57333 4.74 4.32 4.06C4.06667 3.39333 3.78 2.82 3.46 2.34C3.14 1.86 2.75333 1.62 2.3 1.62C2.02 1.62 1.70667 1.74 1.36 1.98C1.02667 2.22 0.646667 2.62 0.22 3.18C0.206667 3.19333 0.193333 3.2 0.18 3.2C0.14 3.2 0.113333 3.15333 0.1 3.06C0.0866667 2.96667 0.0866667 2.9 0.1 2.86C0.393333 2.27333 0.7 1.76667 1.02 1.34C1.35333 0.913333 1.74667 0.593333 2.2 0.379999C2.66667 0.153333 3.24667 0.0599995 3.94 0.099999C4.60667 0.126666 5.1 0.38 5.42 0.86C5.74 1.34 6.02667 1.99333 6.28 2.82C6.48 3.51333 6.68667 4.26 6.9 5.06C7.11333 5.84667 7.30667 6.58 7.48 7.26C7.98667 6.56667 8.52667 5.80667 9.1 4.98C9.67333 4.15333 10.24 3.34 10.8 2.54C11.3733 1.74 11.8867 1.04 12.34 0.439999C12.4867 0.253333 12.7133 0.139999 13.02 0.099999C13.3267 0.0466655 13.6467 0.0199988 13.98 0.0199988C14.1933 0.0199988 14.4 0.0266658 14.6 0.0399997C14.8 0.0399997 14.9733 0.0399997 15.12 0.0399997C14.5333 0.453333 13.9 0.973333 13.22 1.6C12.54 2.22667 11.8667 2.92667 11.2 3.7C10.6133 4.38 10.0133 5.18667 9.4 6.12C8.78667 7.05333 8.23333 8.06 7.74 9.14C7.24667 10.2067 6.88 11.2933 6.64 12.4C6.58667 12.6267 6.54667 12.84 6.52 13.04C6.49333 13.2267 6.48 13.3933 6.48 13.54C6.48 13.7533 6.50667 13.9067 6.56 14H3.98ZM16.448 14.12C16.0346 14.12 15.748 13.96 15.588 13.64C15.4413 13.32 15.368 12.9267 15.368 12.46C15.368 12.0333 15.408 11.6133 15.488 11.2C15.528 11.0133 15.568 10.8267 15.608 10.64C15.6613 10.44 15.7213 10.2333 15.788 10.02C15.5613 10.4333 15.3213 10.8333 15.068 11.22C14.828 11.6067 14.5813 11.9467 14.328 12.24C13.9013 12.76 13.448 13.1933 12.968 13.54C12.5013 13.8867 12.0346 14.06 11.568 14.06C11.1946 14.06 10.8746 13.9267 10.608 13.66C10.3546 13.38 10.228 12.9 10.228 12.22C10.228 11.5267 10.348 10.8133 10.588 10.08C10.828 9.34667 11.1613 8.66667 11.588 8.04C12.028 7.4 12.5413 6.88667 13.128 6.5C13.728 6.11333 14.3813 5.92 15.088 5.92C15.3146 5.92 15.5613 5.95333 15.828 6.02C16.0946 6.08667 16.3413 6.21333 16.568 6.4C16.7946 6.57333 16.948 6.82 17.028 7.14C17.0413 7.11333 17.0546 7.09333 17.068 7.08C17.0946 7.06667 17.1146 7.05333 17.128 7.04C17.3146 6.74667 17.528 6.5 17.768 6.3C18.008 6.1 18.2746 6 18.568 6C18.7146 6 18.9213 6.00667 19.188 6.02C19.4546 6.03333 19.648 6.03333 19.768 6.02C19.7013 6.07333 19.608 6.18 19.488 6.34C19.3813 6.5 19.2813 6.66667 19.188 6.84C19.0946 7 19.0213 7.12667 18.968 7.22C18.608 7.91333 18.2813 8.6 17.988 9.28C17.6946 9.96 17.468 10.6133 17.308 11.24C17.268 11.3733 17.2413 11.5 17.228 11.62C17.2146 11.7267 17.208 11.8333 17.208 11.94C17.208 12.2867 17.3213 12.46 17.548 12.46C17.7613 12.46 18.028 12.3267 18.348 12.06C18.8146 11.6867 19.2213 11.22 19.568 10.66C19.928 10.1 20.2413 9.56 20.508 9.04C20.5613 8.94667 20.608 8.9 20.648 8.9C20.728 8.9 20.768 9.01333 20.768 9.24C20.768 9.34667 20.748 9.46667 20.708 9.6C20.6813 9.73333 20.6346 9.86 20.568 9.98C20.3813 10.3 20.1346 10.6933 19.828 11.16C19.5346 11.6267 19.2013 12.0867 18.828 12.54C18.4546 12.98 18.0613 13.3533 17.648 13.66C17.248 13.9667 16.848 14.12 16.448 14.12ZM12.468 12.38C12.508 12.3933 12.568 12.4 12.648 12.4C12.9013 12.4 13.1746 12.2933 13.468 12.08C13.7613 11.8667 14.0546 11.5933 14.348 11.26C14.6413 10.9133 14.9013 10.5667 15.128 10.22C15.7146 9.28667 16.148 8.58667 16.428 8.12C16.708 7.65333 16.868 7.38667 16.908 7.32C16.8413 7.09333 16.7213 6.92667 16.548 6.82C16.388 6.71333 16.1946 6.66 15.968 6.66C15.6746 6.66 15.3613 6.74 15.028 6.9C14.708 7.06 14.4346 7.25333 14.208 7.48C13.8613 7.82667 13.528 8.27333 13.208 8.82C12.9013 9.36667 12.648 9.90667 12.448 10.44C12.2613 10.9733 12.168 11.42 12.168 11.78C12.168 12.1133 12.268 12.3133 12.468 12.38ZM25.1211 14.12C24.6678 14.12 24.3544 13.9867 24.1811 13.72C24.0211 13.44 23.9411 13.12 23.9411 12.76C23.9411 12.32 24.0278 11.7933 24.2011 11.18C24.3744 10.5533 24.5744 9.92667 24.8011 9.3C25.0411 8.66 25.2544 8.09333 25.4411 7.6C25.4944 7.48 25.5211 7.35333 25.5211 7.22C25.5211 7.07333 25.4744 6.96667 25.3811 6.9C25.2878 6.83333 25.1678 6.8 25.0211 6.8C24.8078 6.8 24.5678 6.86667 24.3011 7C23.8878 7.21333 23.4944 7.55333 23.1211 8.02C22.7478 8.48667 22.4478 8.97333 22.2211 9.48C21.9678 10.0533 21.7411 10.6267 21.5411 11.2C21.3411 11.7733 21.1811 12.24 21.0611 12.6C20.9811 12.8267 20.9078 13.06 20.8411 13.3C20.7744 13.54 20.7078 13.7733 20.6411 14H18.7011C18.7011 14 18.7478 13.8333 18.8411 13.5C18.9211 13.1667 19.0278 12.8333 19.1611 12.5C19.3878 11.9133 19.6144 11.3267 19.8411 10.74C20.0811 10.1533 20.2878 9.63333 20.4611 9.18C20.5144 9.04667 20.5944 8.8 20.7011 8.44C20.8211 8.06667 20.9278 7.68 21.0211 7.28C21.1278 6.88 21.1811 6.55333 21.1811 6.3C21.1811 6.15333 21.1611 6.05333 21.1211 6C21.2411 6 21.3744 6 21.5211 6C21.6811 5.98667 21.8278 5.98 21.9611 5.98C22.1478 5.98 22.3211 5.98667 22.4811 6C22.6544 6.01333 22.7678 6.04667 22.8211 6.1C22.9811 6.22 23.0611 6.39333 23.0611 6.62C23.0611 6.78 23.0278 6.94 22.9611 7.1C22.9078 7.26 22.8678 7.39333 22.8411 7.5C23.0278 7.32667 23.2211 7.16 23.4211 7C23.6211 6.84 23.9278 6.63333 24.3411 6.38C24.5811 6.23333 24.8811 6.11333 25.2411 6.02C25.6011 5.92667 25.9278 5.88 26.2211 5.88C26.9811 5.88 27.3611 6.23333 27.3611 6.94C27.3611 7.06 27.3478 7.19333 27.3211 7.34C27.3078 7.48667 27.2678 7.64667 27.2011 7.82C27.1344 8.03333 27.0278 8.32667 26.8811 8.7C26.7344 9.07333 26.5811 9.47333 26.4211 9.9C26.2744 10.3133 26.1478 10.7067 26.0411 11.08C25.9344 11.4533 25.8811 11.7533 25.8811 11.98C25.8811 12.3 26.0011 12.46 26.2411 12.46C26.4544 12.46 26.7211 12.3267 27.0411 12.06C27.3478 11.8067 27.6144 11.5333 27.8411 11.24C28.1211 10.8933 28.3744 10.5267 28.6011 10.14C28.8411 9.74 29.0478 9.37333 29.2211 9.04C29.2878 8.93333 29.3344 8.88 29.3611 8.88C29.4411 8.88 29.4811 8.99333 29.4811 9.22C29.4811 9.32667 29.4611 9.45333 29.4211 9.6C29.3944 9.73333 29.3478 9.86 29.2811 9.98C29.0944 10.3 28.8744 10.6533 28.6211 11.04C28.3678 11.4267 28.1078 11.8 27.8411 12.16C27.6544 12.4133 27.4078 12.6933 27.1011 13C26.7944 13.3067 26.4678 13.5733 26.1211 13.8C25.7744 14.0133 25.4411 14.12 25.1211 14.12ZM28.852 18.7C28.412 18.7 28.0054 18.6067 27.632 18.42C27.2587 18.2467 27.072 17.92 27.072 17.44C27.072 17.1733 27.152 16.9 27.312 16.62C27.472 16.3533 27.6987 16.18 27.992 16.1C28.0187 16.0867 28.052 16.08 28.092 16.08C28.132 16.08 28.1654 16.08 28.192 16.08C28.552 16.08 28.792 16.22 28.912 16.5C28.8854 16.5133 28.8454 16.5533 28.792 16.62C28.7387 16.7 28.6987 16.76 28.672 16.8C28.552 17.04 28.492 17.2533 28.492 17.44C28.492 17.6533 28.5587 17.82 28.692 17.94C28.8387 18.06 29.0254 18.12 29.252 18.12C29.4387 18.12 29.6387 18.0733 29.852 17.98C30.0787 17.9 30.312 17.7667 30.552 17.58C30.9787 17.2333 31.3254 16.8133 31.592 16.32C31.872 15.84 32.112 15.3667 32.312 14.9C32.6587 14.0733 32.9854 13.2 33.292 12.28C33.612 11.36 33.9254 10.4733 34.232 9.62C33.9787 10.0867 33.7054 10.5533 33.412 11.02C33.132 11.4867 32.8454 11.8933 32.552 12.24C32.1254 12.76 31.672 13.1933 31.192 13.54C30.7254 13.8867 30.2587 14.06 29.792 14.06C29.4187 14.06 29.0987 13.9267 28.832 13.66C28.5654 13.38 28.432 12.9 28.432 12.22C28.432 11.5267 28.552 10.8133 28.792 10.08C29.032 9.34667 29.3654 8.66667 29.792 8.04C30.232 7.4 30.7454 6.88667 31.332 6.5C31.932 6.11333 32.5854 5.92 33.292 5.92C33.5187 5.92 33.7654 5.95333 34.032 6.02C34.2987 6.08667 34.5387 6.20667 34.752 6.38C34.9787 6.55333 35.132 6.8 35.212 7.12C35.3987 6.72 35.6254 6.43333 35.892 6.26C36.1587 6.08667 36.6187 6 37.272 6H38.072C37.8187 6.16 37.5654 6.46 37.312 6.9C37.0587 7.32667 36.8187 7.83333 36.592 8.42C36.4187 8.84667 36.2187 9.34667 35.992 9.92C35.7787 10.4933 35.5787 11.04 35.392 11.56C35.2187 12.04 35.0187 12.5733 34.792 13.16C34.5787 13.7467 34.332 14.3267 34.052 14.9C33.7854 15.4733 33.4787 15.98 33.132 16.42C32.5987 17.1 31.9454 17.6467 31.172 18.06C30.412 18.4867 29.6387 18.7 28.852 18.7ZM30.672 12.38C30.712 12.3933 30.772 12.4 30.852 12.4C31.1054 12.4 31.3787 12.2933 31.672 12.08C31.9654 11.8667 32.2587 11.5933 32.552 11.26C32.8454 10.9133 33.1054 10.5667 33.332 10.22C33.892 9.35333 34.312 8.68667 34.592 8.22C34.8854 7.75333 35.0587 7.46 35.112 7.34C35.1254 7.34 35.132 7.32667 35.132 7.3C35.0654 7.07333 34.9454 6.91333 34.772 6.82C34.612 6.71333 34.4254 6.66 34.212 6.66C33.9187 6.66 33.6054 6.74 33.272 6.9C32.9387 7.06 32.6587 7.25333 32.432 7.48C32.0854 7.82667 31.752 8.27333 31.432 8.82C31.1254 9.36667 30.872 9.90667 30.672 10.44C30.472 10.9733 30.372 11.42 30.372 11.78C30.372 12.1133 30.472 12.3133 30.672 12.38Z" fill="white"/>
</svg>
